<?xml version="1.0" encoding="UTF-8"?>
<svg version="1.1" xmlns="http://www.w3.org/2000/svg" width="400" height="302">
<path d="M0 0 C132 0 264 0 400 0 C400 99.66 400 199.32 400 302 C268 302 136 302 0 302 C0 202.34 0 102.68 0 0 Z " fill="#FEFEFE" transform="translate(0,0)"/>
<path d="M0 0 C132 0 264 0 400 0 C400 99.66 400 199.32 400 302 C268 302 136 302 0 302 C0 202.34 0 102.68 0 0 Z M4 4 C4 101.02 4 198.04 4 298 C133.36 298 262.72 298 396 298 C396 200.98 396 103.96 396 4 C266.64 4 137.28 4 4 4 Z " fill="#000000" transform="translate(0,0)"/>
<path d="M0 0 C0.67675781 -0.02642578 1.35351562 -0.05285156 2.05078125 -0.08007812 C5.86674128 -0.05389016 8.29878304 0.58233212 11.2265625 2.92578125 C13.8125 5.5625 13.8125 5.5625 15 8.3125 C14.72163022 13.13757614 12.38448032 16.55768635 9.8125 20.5625 C16.96868132 20.96759876 16.96868132 20.96759876 23.875 19.4375 C26.34690319 17.04533562 27.00465278 14.86732952 27.8125 11.5625 C30.4525 11.5625 33.0925 11.5625 35.8125 11.5625 C37.1325 14.5325 38.4525 17.5025 39.8125 20.5625 C42.7825 20.5625 45.7525 20.5625 48.8125 20.5625 C49.2765625 19.139375 49.2765625 19.139375 49.75 17.6875 C50.8125 14.5625 50.8125 14.5625 51.8125 12.5625 C54.7825 12.5625 57.7525 12.5625 60.8125 12.5625 C61.0290625 14.2640625 61.0290625 14.2640625 61.25 16 C61.42421478 19.37027201 61.42421478 19.37027201 62.8125 20.5625 C64.47867115 20.60313832 66.14638095 20.605221 67.8125 20.5625 C68.8025 17.5925 69.7925 14.6225 70.8125 11.5625 C73.4525 11.5625 76.0925 11.5625 78.8125 11.5625 C79.1425 14.5325 79.4725 17.5025 79.8125 20.5625 C86.6306528 21.07386146 92.24926284 21.39177707 97.94140625 17.26171875 C100.8524579 14.61807059 103.38153538 11.70049004 105.85546875 8.6484375 C109.01332349 5.28258035 111.65336516 3.68895107 116.25 3.1875 C120.23200683 3.60665861 122.48349182 4.34316122 125.8125 6.5625 C131.58887604 13.90005876 131.72793281 21.44885778 130.8125 30.5625 C129.3309952 34.5447849 127.52694209 37.53519541 123.84375 39.7421875 C120.05693253 41.27147917 116.51140445 41.19646618 112.6875 39.76953125 C109.17593532 38.08475482 106.47852619 36.43423809 103.8125 33.5625 C103.27625 33.830625 102.74 34.09875 102.1875 34.375 C101.40375 34.766875 100.62 35.15875 99.8125 35.5625 C98.8225 36.078125 97.8325 36.59375 96.8125 37.125 C91.6003006 39.62251221 86.55539786 40.31027316 80.8125 39.5625 C77.4375 37.6875 77.4375 37.6875 74.8125 35.5625 C73.8225 34.9025 72.8325 34.2425 71.8125 33.5625 C71.544375 34.18125 71.27625 34.8 71 35.4375 C69.8125 37.5625 69.8125 37.5625 66.8125 39.5625 C62.89549846 40.07341324 61.28311027 39.86941974 57.9375 37.6875 C57.23625 36.98625 56.535 36.285 55.8125 35.5625 C55.8125 34.9025 55.8125 34.2425 55.8125 33.5625 C55.35359375 33.91183594 54.8946875 34.26117188 54.421875 34.62109375 C53.80828125 35.07613281 53.1946875 35.53117187 52.5625 36 C51.95921875 36.45246094 51.3559375 36.90492188 50.734375 37.37109375 C46.56806459 39.95386748 41.6079666 40.27533963 36.8125 39.5625 C33.5625 37.5625 33.5625 37.5625 30.8125 35.5625 C26.4274161 35.5625 26.00692551 35.98635039 22.8125 38.5625 C17.28667005 40.40444332 11.72318291 40.31312543 6.3125 38.1875 C3.8125 36.5625 3.8125 36.5625 1.8125 34.5625 C-1.46901934 35.02205632 -4.52761092 36.4193659 -7.625 37.5625 C-12.38086293 39.25811902 -15.92257439 39.56937628 -20.9375 39.3125 C-24.22414115 39.270816 -24.22414115 39.270816 -27.1875 40.5625 C-30.13919661 44.06337591 -31.73210694 48.29816705 -33.40625 52.51171875 C-35.03157542 56.5779073 -37.23225385 59.34917585 -40.1875 62.5625 C-44.4704452 62.0145917 -47.03885641 60.53817196 -50.5 58 C-51.82451172 57.03900391 -51.82451172 57.03900391 -53.17578125 56.05859375 C-53.83964844 55.56488281 -54.50351563 55.07117188 -55.1875 54.5625 C-53.80927144 51.43577251 -52.22504129 49.40447456 -49.75 47.0625 C-46.16247003 43.57395047 -46.16247003 43.57395047 -43.1875 39.5625 C-43.1875 38.9025 -43.1875 38.2425 -43.1875 37.5625 C-43.71859375 37.35496094 -44.2496875 37.14742187 -44.796875 36.93359375 C-49.30730765 34.96645251 -52.45974704 33.14529545 -54.62109375 28.609375 C-56.03738086 23.49120641 -55.28738971 18.77611451 -52.9453125 14.0625 C-49.82984214 9.15523062 -46.46959211 5.20354605 -41.1875 2.5625 C-37.18507233 2.30634463 -33.56203071 2.48602543 -30.33203125 5.015625 C-25.57571363 10.4178623 -24.1875 14.25243278 -24.1875 21.5625 C-18.9075 21.2325 -13.6275 20.9025 -8.1875 20.5625 C-8.6825 19.0775 -8.6825 19.0775 -9.1875 17.5625 C-12.69044871 15.84682339 -12.69044871 15.84682339 -16.1875 14.5625 C-16.5175 11.2625 -16.8475 7.9625 -17.1875 4.5625 C-11.46575648 1.29293227 -6.57595847 0.11483751 0 0 Z " fill="#030303" transform="translate(182.1875,188.4375)"/>
<path d="M0 0 C1.18662603 0.00151888 2.37325206 0.00303776 3.59583646 0.00460267 C4.59125993 -0.0023204 4.59125993 -0.0023204 5.60679296 -0.00938332 C7.84657137 -0.02003207 10.08521611 -0.00197832 12.32493669 0.01577592 C13.94032554 0.01403275 15.55571331 0.01053252 17.17109501 0.00541925 C21.62247611 -0.00355458 26.0734746 0.01251573 30.52480692 0.0325315 C35.32030016 0.04975762 40.11577071 0.04396324 44.91128618 0.0409224 C53.22394208 0.03882197 61.53647269 0.05140357 69.84909707 0.07387376 C81.86783044 0.10634098 93.88650303 0.11679536 105.9052755 0.12182572 C125.40349874 0.13058668 144.90165515 0.15722394 164.39984208 0.19503617 C183.34384909 0.23173557 202.28783797 0.26005747 221.23187333 0.27706742 C222.98256398 0.27864376 222.98256398 0.27864376 224.76862212 0.28025195 C230.62358197 0.28547199 236.47854194 0.29052685 242.33350199 0.29549956 C290.92914788 0.3369865 339.52472122 0.40745669 388.12030107 0.49679399 C388.12030107 1.15679399 388.12030107 1.81679399 388.12030107 2.49679399 C388.78030107 2.49679399 389.44030107 2.49679399 390.12030107 2.49679399 C390.12030107 3.15679399 390.12030107 3.81679399 390.12030107 4.49679399 C259.44030107 4.49679399 128.76030107 4.49679399 -5.87969893 4.49679399 C-2.87969893 0.49679399 -2.87969893 0.49679399 0 0 Z " fill="#161616" transform="translate(7.879698932170868,297.5032060146332)"/>
<path d="M0 0 C3 1 3 1 4.05908203 2.59472656 C4.37216309 3.26987305 4.68524414 3.94501953 5.0078125 4.640625 C5.35457031 5.38183594 5.70132813 6.12304688 6.05859375 6.88671875 C6.41050781 7.66660156 6.76242188 8.44648438 7.125 9.25 C7.48464844 10.01441406 7.84429687 10.77882812 8.21484375 11.56640625 C11.20575045 18.05230504 12.15127619 23.24345083 12.1875 30.4375 C12.20167969 31.71496094 12.21585938 32.99242187 12.23046875 34.30859375 C11.99873902 38.02019706 11.68246423 40.67921784 10 44 C1.5659425 48.23033168 -9.7436587 47.56361797 -19 47 C-19.99 46.67 -20.98 46.34 -22 46 C-22.35071725 39.57018367 -21.26244159 35.03317758 -19 29 C-10.585 28.505 -10.585 28.505 -2 28 C-3.11375 25.958125 -4.2275 23.91625 -5.375 21.8125 C-7.51455762 17.8899777 -9.33516769 14.16208077 -11 10 C-5.555 5.05 -5.555 5.05 0 0 Z " fill="#040404" transform="translate(110,182)"/>
<path d="M0 0 C2.4375 2.0625 2.4375 2.0625 4 4 C2.39592672 4.02708567 0.7917215 4.04643483 -0.8125 4.0625 C-2.15248047 4.07990234 -2.15248047 4.07990234 -3.51953125 4.09765625 C-6 4 -6 4 -9 3 C-9 2.01 -9 1.02 -9 0 C-5.81452856 -1.59273572 -3.39809153 -0.76164121 0 0 Z " fill="#E2E2E2" transform="translate(146,207)"/>
<path d="M0 0 C2 1.5 2 1.5 3 3 C2 4 2 4 -0.21484375 4.1328125 C-1.11332031 4.13023437 -2.01179688 4.12765625 -2.9375 4.125 C-3.83339844 4.12757813 -4.72929687 4.13015625 -5.65234375 4.1328125 C-8 4 -8 4 -10 3 C-10 2.34 -10 1.68 -10 1 C-6.82975235 -0.58512383 -3.45332972 -0.42372144 0 0 Z " fill="#EDEDED" transform="translate(302,208)"/>
</svg>
